<?xml version="1.0" encoding="utf-8"?>
<!-- Generator: Adobe Illustrator 20.1.0, SVG Export Plug-In . SVG Version: 6.00 Build 0)  -->
<svg version="1.1" id="分離模式" xmlns="http://www.w3.org/2000/svg" xmlns:xlink="http://www.w3.org/1999/xlink" x="0px"
	 y="0px" viewBox="0 0 246 60" style="enable-background:new 0 0 246 60;" xml:space="preserve">
<style type="text/css">
	.st0{fill:#231815;}
	.st1{fill:#1E62D0;}
	.st2{fill:#068FDF;}
</style>
<g>
	<path class="st0" d="M74.2,55L71,45.3h2.6l1.9,6.4l1.8-6.4h2.6l1.7,6.4l2-6.4h2.7L83,55h-2.6l-1.8-6.3L76.9,55H74.2z"/>
	<path class="st0" d="M89.6,55l-3.2-9.7H89l1.9,6.4l1.8-6.4h2.6l1.7,6.4l2-6.4h2.7L98.3,55h-2.6l-1.8-6.3L92.2,55H89.6z"/>
	<path class="st0" d="M104.9,55l-3.2-9.7h2.6l1.9,6.4l1.8-6.4h2.6l1.7,6.4l2-6.4h2.7l-3.3,9.7H111l-1.8-6.3l-1.7,6.3H104.9z"/>
	<path class="st0" d="M117.6,55v-2.6h2.7V55H117.6z"/>
	<path class="st0" d="M127.8,45.3v2.1h-1.8v3.9c0,0.8,0,1.3,0.1,1.4c0,0.1,0.1,0.2,0.2,0.3c0.1,0.1,0.3,0.1,0.5,0.1
		c0.3,0,0.6-0.1,1.1-0.2l0.2,2c-0.6,0.3-1.3,0.4-2.1,0.4c-0.5,0-0.9-0.1-1.3-0.2c-0.4-0.2-0.7-0.4-0.9-0.6c-0.2-0.2-0.3-0.6-0.4-1
		c-0.1-0.3-0.1-0.9-0.1-1.8v-4.2H122v-2.1h1.2v-1.9l2.7-1.5v3.4H127.8z"/>
	<path class="st0" d="M131.6,55l-3.2-9.7h2.6l1.9,6.4l1.8-6.4h2.6l1.7,6.4l2-6.4h2.7l-3.3,9.7h-2.6l-1.8-6.3l-1.7,6.3H131.6z"/>
	<path class="st1" d="M144.3,50.7l2.8-0.3c0.2,0.9,0.5,1.5,1,2c0.5,0.4,1.2,0.6,2.1,0.6c0.9,0,1.6-0.2,2.1-0.6
		c0.5-0.4,0.7-0.8,0.7-1.3c0-0.3-0.1-0.6-0.3-0.8c-0.2-0.2-0.5-0.4-1-0.6c-0.3-0.1-1.1-0.3-2.3-0.6c-1.5-0.4-2.6-0.8-3.2-1.3
		c-0.9-0.7-1.3-1.6-1.3-2.7c0-0.7,0.2-1.3,0.6-1.9c0.4-0.6,1-1.1,1.8-1.4c0.8-0.3,1.7-0.5,2.8-0.5c1.8,0,3.1,0.4,4,1.1
		s1.4,1.7,1.4,3l-2.8,0.1c-0.1-0.7-0.4-1.2-0.8-1.5c-0.4-0.3-1-0.5-1.8-0.5c-0.8,0-1.5,0.2-1.9,0.5c-0.3,0.2-0.5,0.5-0.5,0.8
		c0,0.3,0.1,0.6,0.4,0.8c0.4,0.3,1.2,0.6,2.6,0.9c1.4,0.3,2.4,0.6,3.1,1s1.2,0.8,1.6,1.4c0.4,0.6,0.6,1.3,0.6,2.1
		c0,0.8-0.2,1.5-0.7,2.2c-0.4,0.7-1.1,1.2-1.9,1.5c-0.8,0.3-1.8,0.5-3.1,0.5c-1.8,0-3.2-0.4-4.1-1.2
		C145.1,53.3,144.5,52.2,144.3,50.7z"/>
	<path class="st0" d="M162.8,45.3v2.1H161v3.9c0,0.8,0,1.3,0.1,1.4c0,0.1,0.1,0.2,0.2,0.3c0.1,0.1,0.3,0.1,0.5,0.1
		c0.3,0,0.6-0.1,1.1-0.2l0.2,2c-0.6,0.3-1.3,0.4-2.1,0.4c-0.5,0-0.9-0.1-1.3-0.2c-0.4-0.2-0.7-0.4-0.9-0.6c-0.2-0.2-0.3-0.6-0.4-1
		c-0.1-0.3-0.1-0.9-0.1-1.8v-4.2H157v-2.1h1.2v-1.9l2.7-1.5v3.4H162.8z"/>
	<path class="st0" d="M171.5,55v-1.5c-0.4,0.5-0.9,0.9-1.5,1.2c-0.6,0.3-1.2,0.4-1.9,0.4c-0.7,0-1.3-0.1-1.8-0.4
		c-0.5-0.3-0.9-0.7-1.2-1.2c-0.2-0.5-0.4-1.2-0.4-2.2v-6.2h2.7v4.5c0,1.4,0.1,2.2,0.1,2.5s0.3,0.6,0.5,0.7c0.3,0.2,0.6,0.3,1,0.3
		c0.5,0,0.9-0.1,1.2-0.4s0.6-0.5,0.8-0.9c0.1-0.4,0.2-1.2,0.2-2.6v-4.1h2.7V55H171.5z"/>
	<path class="st0" d="M186.1,55h-2.5v-1.4c-0.4,0.6-0.9,1-1.5,1.2c-0.6,0.3-1.1,0.4-1.7,0.4c-1.2,0-2.2-0.5-3-1.4
		c-0.8-0.9-1.3-2.2-1.3-3.8c0-1.7,0.4-2.9,1.2-3.8c0.8-0.9,1.8-1.3,3.1-1.3c1.1,0,2.1,0.5,3,1.4v-4.8h2.7V55z M178.9,50
		c0,1,0.2,1.8,0.5,2.3c0.4,0.7,1,1,1.8,1c0.6,0,1.2-0.3,1.6-0.8c0.4-0.5,0.7-1.3,0.7-2.3c0-1.1-0.2-1.9-0.6-2.4
		c-0.4-0.5-1-0.7-1.6-0.7c-0.6,0-1.2,0.2-1.6,0.7C179.1,48.3,178.9,49,178.9,50z"/>
	<path class="st0" d="M187.5,45.3h2.9l2.4,6.9l2.4-6.9h2.8l-3.6,9.4l-0.6,1.7c-0.2,0.6-0.5,1-0.7,1.3c-0.2,0.3-0.5,0.5-0.7,0.7
		c-0.3,0.2-0.6,0.3-1,0.4c-0.4,0.1-0.9,0.2-1.4,0.2c-0.5,0-1-0.1-1.5-0.2l-0.2-2c0.4,0.1,0.8,0.1,1.1,0.1c0.6,0,1.1-0.2,1.4-0.5
		c0.3-0.4,0.5-0.8,0.7-1.3L187.5,45.3z"/>
	<path class="st0" d="M198.3,55v-2.6h2.7V55H198.3z"/>
	<path class="st0" d="M212.7,48.2l-2.7,0.5c-0.1-0.5-0.3-0.9-0.6-1.1c-0.3-0.3-0.7-0.4-1.2-0.4c-0.7,0-1.2,0.2-1.6,0.7
		c-0.4,0.4-0.6,1.2-0.6,2.2c0,1.2,0.2,2,0.6,2.4c0.4,0.5,1,0.7,1.6,0.7c0.5,0,0.9-0.1,1.3-0.4c0.3-0.3,0.6-0.8,0.7-1.4l2.7,0.4
		c-0.3,1.2-0.8,2-1.6,2.6c-0.8,0.6-1.8,0.9-3.1,0.9c-1.5,0-2.7-0.4-3.6-1.3c-0.9-0.9-1.3-2.1-1.3-3.7c0-1.6,0.4-2.9,1.3-3.8
		c0.9-0.9,2.1-1.3,3.6-1.3c1.2,0,2.2,0.3,3,0.8C211.9,46.4,212.4,47.1,212.7,48.2z"/>
	<path class="st0" d="M214.1,50c0-0.9,0.2-1.7,0.7-2.5c0.4-0.8,1.1-1.4,1.9-1.8c0.8-0.4,1.7-0.6,2.7-0.6c1.5,0,2.8,0.5,3.8,1.4
		c1,1,1.5,2.2,1.5,3.6c0,1.5-0.5,2.7-1.5,3.7c-1,1-2.3,1.5-3.8,1.5c-0.9,0-1.8-0.2-2.7-0.6c-0.9-0.4-1.5-1-1.9-1.8
		C214.4,52.1,214.1,51.2,214.1,50z M216.9,50.2c0,1,0.2,1.7,0.7,2.2s1.1,0.8,1.8,0.8c0.7,0,1.3-0.3,1.8-0.8c0.5-0.5,0.7-1.3,0.7-2.2
		c0-1-0.2-1.7-0.7-2.2c-0.5-0.5-1.1-0.8-1.8-0.8c-0.7,0-1.3,0.3-1.8,0.8S216.9,49.2,216.9,50.2z"/>
	<path class="st0" d="M226.6,45.3h2.5v1.3c0.9-1,2-1.5,3.2-1.5c0.7,0,1.2,0.1,1.7,0.4c0.5,0.3,0.9,0.6,1.2,1.2
		c0.4-0.5,0.9-0.9,1.5-1.2c0.5-0.3,1.1-0.4,1.7-0.4c0.8,0,1.4,0.1,1.9,0.4c0.5,0.3,0.9,0.7,1.2,1.3c0.2,0.4,0.3,1.1,0.3,2V55h-2.7
		v-5.6c0-1-0.1-1.6-0.3-1.9c-0.3-0.4-0.6-0.6-1.2-0.6c-0.4,0-0.7,0.1-1.1,0.3c-0.3,0.2-0.6,0.5-0.7,1c-0.1,0.4-0.2,1.1-0.2,2V55
		h-2.7v-5.3c0-0.9,0-1.6-0.1-1.8s-0.2-0.5-0.4-0.6c-0.2-0.1-0.5-0.2-0.8-0.2c-0.4,0-0.8,0.1-1.1,0.3c-0.3,0.2-0.6,0.5-0.7,0.9
		c-0.1,0.4-0.2,1.1-0.2,2V55h-2.7V45.3z"/>
</g>
<g>
	<path class="st2" d="M48.3,23.4v-7c0-3.7-1-6.5-2.9-8.4c-1.9-1.9-4.7-2.9-8.4-2.9c-2.3,0-4.2,0.4-5.8,1.1c-1.6,0.7-3,2-4.4,3.7
		c-2.2-3.2-5.4-4.8-9.6-4.8c-3.5,0-6.4,1-8.6,2.9c-2.2,1.9-3.3,4.4-3.3,7.5v34h12.1V18.5c0-1.8,0.6-2.7,1.8-2.7
		c0.6,0,1.1,0.2,1.3,0.6c0.2,0.4,0.3,1.1,0.3,2.2v31.1h12.1V18.4c0-1.7,0.6-2.6,1.8-2.6c0.6,0,1.1,0.2,1.3,0.5
		c0.2,0.4,0.3,1.1,0.3,2.2v4.9H48.3z"/>
	<path class="st2" d="M53.4,43.6h-0.6c-1.8,0-3-0.3-3.6-0.9c-0.6-0.6-0.9-0.9-0.9-2.7V25.9h-12v15.9c0,4.2,1.2,7.4,3.7,9.8
		c2.5,2.4,5.9,3.5,10.3,3.5h3.2h9.1V43.5L53.4,43.6z"/>
	<path class="st2" d="M53.7,29.1c0-1.9-1.5-3.4-3.3-3.4v6.7C52.2,32.5,53.7,31,53.7,29.1z"/>
	<path class="st2" d="M57.9,29.1L57.9,29.1C57.9,29.1,57.9,29.1,57.9,29.1C57.9,29.1,57.9,29.1,57.9,29.1L57.9,29.1
		c-0.1-4.2-3.4-7.6-7.5-7.7v2.1c1.5,0,2.8,0.6,3.8,1.7c1,1,1.6,2.4,1.6,3.9c0,1.5-0.6,2.8-1.6,3.9c-1,1-2.4,1.6-3.8,1.7v2.1
		C54.5,36.7,57.9,33.3,57.9,29.1z"/>
	<path class="st2" d="M61.9,29.1L61.9,29.1C61.9,29.1,61.9,29.1,61.9,29.1C61.9,29.1,61.9,29.1,61.9,29.1L61.9,29.1
		c-0.1-6.4-5.2-11.6-11.5-11.7v2.1c5.2,0.1,9.4,4.3,9.4,9.6c-0.1,5.3-4.3,9.6-9.4,9.6v2.1C56.7,40.7,61.8,35.5,61.9,29.1z"/>
</g>
<g>
	<path class="st2" d="M79.8,13.1l3,1.1c0.4,0.1,0.6,0.2,0.6,0.4c0,0.1-0.1,0.3-0.4,0.5c-0.5,0.1-1.5,1.2-2.9,3.1
		c-0.6,0.8-1.3,1.6-1.9,2.3v18.6h-3.5v-15c-1,0.9-2,1.8-3.1,2.7L68.3,25C73.1,21.7,76.9,17.7,79.8,13.1z M77.9,6.1l3,1.1
		c0.4,0.1,0.6,0.2,0.6,0.4c0,0.1-0.1,0.3-0.4,0.5C80.7,8.2,80,8.8,78.8,10c-1.8,1.9-4.1,3.7-6.7,5.3l-3.2-1.8
		C72.6,11.5,75.6,9,77.9,6.1z M81.9,18H102v3h-6.3v14.1c0,1.4-0.5,2.5-1.4,3.1c-0.8,0.7-2.8,1-6.1,1l-1.5-3.7h3.5
		c1.2,0,1.9-0.4,2-1.2V21.1H81.9V18z M84.5,8.1h16.1v3.2H84.5V8.1z"/>
	<path class="st2" d="M120.6,8.8c-0.3,0-0.8,0.1-1.5,0.3c-1.2,0.3-2.6,0.5-4,0.7v2.1h7.7v2.7h-7.7v1.8h6.9v11.3h-6.9v1.8h6.7v2.7
		h-6.7v2.1c2.5-0.2,4.9-0.5,7.3-0.8v1.6c0.9-1.5,1.6-3,2.2-4.4c0.7-2.2,1.3-4.7,1.6-7.7c0.2-1.6,0.3-4,0.4-7.3h-2.9v-3h3
		c0-2,0-4.2,0-6.7l3,0.2c0.6,0,0.8,0.1,0.8,0.3c-0.1,0.2-0.3,0.4-0.6,0.8c0,2,0,3.8,0,5.5h6.5c0,10.3-0.2,16.7-0.6,19.4
		c-0.3,2.6-0.8,4.4-1.7,5.3c-0.9,1-2.4,1.5-4.7,1.5l-1.7-3.4c2.3,0,3.6-0.3,4-0.9c0.4-0.5,0.7-1.6,1-3.4c0.3-1.9,0.5-7.1,0.5-15.5
		h-3.4c-0.1,3.8-0.4,6.8-0.7,9c-0.5,3.3-1,5.8-1.6,7.6c-0.9,2.7-2,4.9-3.2,6.7l-3.2-1.9c0.2-0.2,0.4-0.5,0.5-0.7
		c-3.6,0.5-8.9,1.2-15.9,2c-0.2,0.4-0.5,0.6-0.7,0.6c-0.2,0-0.4-0.2-0.4-0.5l-0.8-3.3c2.8-0.1,5.6-0.3,8.3-0.5v-2.4h-6.9v-2.7h6.9
		v-1.8H105V16.4h7.1v-1.8h-8v-2.7h8v-1.7c-2,0.1-4.1,0.2-6.4,0.2l-1.4-2.8c1.7,0,3.1,0.1,4.1,0.1c4.1,0,7.9-0.6,11.3-1.8l2.5,2.5
		c0.1,0.1,0.2,0.3,0.2,0.6c0,0.1-0.1,0.2-0.3,0.2c-0.3,0-0.5-0.1-0.7-0.2C121.1,8.9,120.8,8.8,120.6,8.8z M108.1,20.9h4V19h-4V20.9z
		 M112.1,25.1v-1.9h-4v1.9H112.1z M115.1,19v1.9h3.9V19H115.1z M119.1,25.1v-1.9h-3.9v1.9H119.1z"/>
	<path class="st2" d="M142.9,5.7l3,0.3c0.6,0,0.8,0.2,0.8,0.5c0,0.2-0.2,0.4-0.7,0.8v4.4h2.3c0.1-0.4,0.3-0.6,0.6-0.6l1.8,1.4
		c0.3,0.1,0.4,0.3,0.4,0.6s-0.2,0.4-0.6,0.6c-1.5,2.5-2.7,4.5-3.8,6c1.7,2.8,3.7,5.2,6,7.3l-2.4,2.1c-1.4-1.5-2.6-3.1-3.6-4.6v14.6
		h-3.2V23.7c-0.9,1-2,2-3.2,3l-2-2.8c1.8-1.4,3.3-2.8,4.3-3.9c1.1-1.2,2.4-3,3.9-5.4h-7.3v-2.9h3.6V5.7z M150.1,16.8l2.1,1
		c0.3,0.1,0.5,0.3,0.5,0.4c0,0.2-0.2,0.4-0.6,0.6l-2.2,2.5l-2.2-1L150.1,16.8z M152.3,10.9h8.4V5.5l3,0.3c0.6,0,0.8,0.2,0.8,0.4
		c0,0.2-0.2,0.5-0.7,0.8v3.9h8.5v2.9h-8.5v3.3h7.5v18.7c0,1.6-0.7,2.6-2,3.1c-1.1,0.4-2.1,0.5-3.2,0.5l-1.3-3.2l2.3-0.1
		c0.7,0,1-0.5,1-1.3v-3.1h-4.3v7.3h-3.2v-7.3h-4.2v7.3h-3.2V17.1h7.4v-3.3h-8.4V10.9z M156.5,23h4.2v-3h-4.2V23z M156.5,28.9h4.2
		v-3.2h-4.2V28.9z M163.8,20v3h4.3v-3H163.8z M163.8,25.7v3.2h4.3v-3.2H163.8z M167.4,6c1.4,0.7,2.7,1.6,4,2.6l-2.3,2.1
		c-1.3-1.1-2.6-2-3.8-2.6L167.4,6z"/>
	<path class="st2" d="M175.7,6.8h15v14.6L193,22c0.5,0.1,0.8,0.3,0.8,0.5c0,0.3-0.3,0.6-0.9,0.9l-0.1,0.8h10.5v14.8h-3.2V38h-17.2
		v1.1h-3.2V24.3h9.7l0.5-2h-2.4v-5c-1.1,0.8-2.1,1.5-3,2.1c-1.6,1.1-3.9,2.2-7,3.3l-2.5-2.8c2.8-0.7,5.2-1.5,7-2.5
		c1.6-0.8,3.4-2,5.5-3.7v-2.6c-1.2,0.9-2.4,1.7-3.5,2.3c-1.5,1-3.8,2-6.7,3l-2.5-2.8c2.7-0.6,5-1.3,6.8-2.1c1.1-0.5,2.3-1.2,3.7-2.1
		h-9.5V6.8z M182.9,29.8h17.2V27h-17.2V29.8z M182.9,35.3h17.2v-2.8h-17.2V35.3z M191.9,6.8h14.5v15.5h-3.2v-5.2
		c-0.9,0.7-1.7,1.3-2.5,1.8c-1.4,1-3.6,2-6.4,3l-2.5-2.8c2.6-0.6,4.7-1.3,6.4-2.2c1.4-0.7,3.1-1.7,5-3.2v-2.3c-1,0.8-2,1.5-3,2
		c-1.3,0.8-3.2,1.7-5.8,2.6l-2.5-2.8c2.4-0.5,4.3-1.1,5.9-1.8c1-0.4,2.1-1,3.3-1.8h-9.2V6.8z"/>
	<path class="st2" d="M210.9,27.5l2.9,0.8c0.3,0,0.4,0.2,0.4,0.4c0,0.2-0.2,0.5-0.6,0.9c-0.4,2.7-1,5-1.7,7l-2.9-1.1
		c0.4-0.9,0.8-2,1.1-3.1C210.4,31,210.7,29.3,210.9,27.5z M215.5,5.8l2.5,1.2c0.4,0.2,0.5,0.4,0.5,0.5c0,0.3-0.2,0.5-0.7,0.7
		l-3.4,4.8c0.7,0.5,1.4,1,2.1,1.5L219,11l2.3,1.6c0.3,0.1,0.4,0.4,0.4,0.6c0,0.3-0.2,0.4-0.7,0.5l-5.9,8c1.3-0.1,2.6-0.2,3.9-0.4
		c-0.2-0.6-0.4-1.1-0.6-1.7l2.8-0.6c0.5,1.3,1,2.6,1.3,3.9V7.2H242v28.6c0,1.4-0.7,2.4-2.2,2.8c-1.2,0.3-2.3,0.5-3.4,0.5l-1.2-2.9
		l2.7-0.1c0.8,0,1.2-0.4,1.2-1.2V25H231v4c0,0.4,0.2,0.5,0.7,0.5h6.4v2.6h-7.8c-1.5,0-2.2-0.6-2.2-1.7V25h-2.5v14.1h-3v-3.8
		l-2.5,0.5c-0.4-2.7-1-5.3-1.6-7.6l3-0.7c0.5,1.6,0.8,3.1,1.2,4.6v-6.8l-2.4,0.5c-0.1-0.7-0.3-1.3-0.4-1.9c-0.6,0.1-1.3,0.2-2,0.3
		v14.9h-3V24.6c-1.1,0.2-2.2,0.3-3.5,0.5c-0.2,0.4-0.4,0.6-0.6,0.6c-0.2,0-0.4-0.2-0.4-0.5l-0.8-3.1c0.7,0,1.4-0.1,2.2-0.1l3.2-4.8
		c-2-1.5-3.8-2.9-5.4-4l1.8-2.3c0.3,0.2,0.6,0.4,0.9,0.6L215.5,5.8z M225.6,16h2.7c-0.5-1.5-1.2-2.9-1.9-4.2l2.7-0.6
		c1,1.6,1.7,3.2,2.2,4.8h2.1l1.8-4.8l2.3,0.5c0.4,0.1,0.6,0.2,0.6,0.5c0,0.2-0.2,0.5-0.7,0.8l-1.1,3h2.9v-6h-13.5V16z M225.6,22.2
		h5.1v-3.7h-5.1V22.2z M233.6,22.2h5.5v-3.7h-5.5V22.2z"/>
</g>
</svg>
